<?xml version="1.0" encoding="UTF-8"?>
<svg width="64px" height="64px" viewBox="0 0 64 64" version="1.1" xmlns="http://www.w3.org/2000/svg" xmlns:xlink="http://www.w3.org/1999/xlink">
    <!-- Generator: Sketch 55.2 (78181) - https://sketchapp.com -->
    <title>Bitcoin</title>
    <desc>Created with Sketch.</desc>
    <g id="Page-1" stroke="none" stroke-width="1" fill="none" fill-rule="evenodd">
        <g id="crypto" transform="translate(-86.000000, -87.000000)">
            <g id="Bitcoin" transform="translate(86.000000, 87.000000)">
                <g id="Group">
                    <ellipse id="Combined-Shape" fill="#F89B2B" fill-rule="nonzero" cx="31.7" cy="32" rx="31.7" ry="31.2123077"></ellipse>
                    <path d="M22.1,16.0492308 C23.2,16.3446154 24.3,16.5415385 25.4,16.8369231 C26.5,17.1323077 27.6,17.3292308 28.7,17.6246154 C29,17.7230769 29.1,17.6246154 29.2,17.3292308 C29.6,15.6553846 30,14.08 30.4,12.4061538 C30.5,12.1107692 30.6,12.0123077 30.9,12.1107692 C31.9,12.4061538 32.8,12.6030769 33.8,12.8 C34.1,12.8984615 34.1,12.9969231 34,13.1938462 C33.6,14.7692308 33.2,16.4430769 32.8,18.0184615 C32.8,18.1169231 32.8,18.2153846 32.7,18.4123077 C33.5,18.6092308 34.4,18.8061538 35.2,19.0030769 C35.3,19.0030769 35.4,18.8061538 35.5,18.7076923 C35.8,17.4276923 36.1,16.2461538 36.5,14.9661538 C36.6,14.5723077 36.7,14.1784615 36.8,13.7846154 C36.8,13.5876923 36.9,13.4892308 37.1,13.5876923 C38.1,13.8830769 39.1,14.08 40.2,14.3753846 C40.3,14.3753846 40.3,14.4738462 40.4,14.4738462 C40.1,15.7538462 39.8,16.9353846 39.5,18.1169231 C39.4,18.6092308 39.3,19.1015385 39.1,19.5938462 C39,19.8892308 39.1,19.9876923 39.4,20.0861538 C40.5,20.5784615 41.6,21.0707692 42.7,21.5630769 C43.7,22.1538462 44.6,22.9415385 45.3,23.9261538 C46.2,25.4030769 46.3,26.9784615 45.9,28.5538462 C45.6,29.6369231 45.2,30.6215385 44.4,31.4092308 C43.8,32 43,32.3938462 42.2,32.6892308 C42.1,32.6892308 42,32.7876923 41.8,32.7876923 C42.2,33.0830769 42.6,33.28 43,33.5753846 C44.2,34.4615385 45,35.5446154 45.4,36.9230769 C45.6,38.0061538 45.5,39.1876923 45.2,40.2707692 C44.8,41.6492308 44.3,42.8307692 43.4,43.9138462 C42.3,45.1938462 40.9,45.8830769 39.3,46.08 C37.2,46.3753846 35.2,46.1784615 33.2,45.8830769 C32.9,45.7846154 32.7,45.8830769 32.6,46.1784615 C32.2,47.7538462 31.8,49.4276923 31.4,51.0030769 C31.3,51.3969231 31.3,51.4953846 30.8,51.2984615 C29.9,51.1015385 28.9,50.8061538 28,50.6092308 C27.7,50.5107692 27.7,50.4123077 27.8,50.2153846 C28.2,48.5415385 28.6,46.8676923 29.1,45.2923077 C29.1,45.0953846 29.2,44.9969231 29,44.8984615 C28.2,44.7015385 27.4,44.5046154 26.5,44.3076923 C26.3,45.1938462 26,46.08 25.8,46.9661538 C25.6,47.8523077 25.3,48.7384615 25.1,49.6246154 C25,49.8215385 25,49.92 24.7,49.8215385 C23.7,49.5261538 22.7,49.3292308 21.7,49.1323077 C21.4,49.0338462 21.4,48.9353846 21.5,48.7384615 C21.9,47.0646154 22.3,45.3907692 22.8,43.8153846 C22.8,43.7169231 22.9,43.6184615 22.9,43.4215385 C20.6,42.8307692 18.3,42.24 15.9,41.6492308 C16.1,41.2553846 16.2,40.96 16.4,40.5661538 C16.8,39.68 17.2,38.7938462 17.5,38.0061538 C17.6,37.7107692 17.7,37.7107692 18,37.7107692 C18.7,37.9076923 19.5,38.1046154 20.2,38.2030769 C21,38.4 21.6,38.0061538 21.7,37.3169231 C23,32.2953846 24.3,27.2738462 25.5,22.1538462 C25.7,21.3661538 25.2,20.48 24.3,20.1846154 C23.4,19.8892308 22.5,19.6923077 21.7,19.4953846 C21.5,19.4953846 21.4,19.3969231 21.5,19.2 C21.8,18.1169231 22.1,16.9353846 22.4,15.8523077 C22,16.1476923 22,16.1476923 22.1,16.0492308 Z M27.2,40.3692308 C27.3,40.3692308 27.4,40.4676923 27.4,40.4676923 C29,40.8615385 30.7,41.3538462 32.4,41.4523077 C33.6,41.5507692 34.7,41.5507692 35.8,41.1569231 C37.7,40.5661538 38.5,38.1046154 37.4,36.5292308 C36.9,35.7415385 36.1,35.2492308 35.3,34.7569231 C33.5,33.7723077 31.4,33.3784615 29.4,32.9846154 C29.1,32.8861538 29.1,32.9846154 29,33.28 C28.8,34.2646154 28.5,35.1507692 28.3,36.1353846 C27.9,37.5138462 27.6,38.8923077 27.2,40.3692308 Z M35.6,30.3261538 C35.8,30.3261538 36.3,30.2276923 36.7,30.1292308 C38.6,29.7353846 39.6,27.5692308 38.6,25.8953846 C38.1,25.0092308 37.2,24.4184615 36.3,24.0246154 C34.9,23.4338462 33.5,23.1384615 32,22.7446154 C31.7,22.6461538 31.6,22.7446154 31.5,23.04 C31,25.1076923 30.5,27.0769231 29.9,29.1446154 C29.8,29.3415385 29.9,29.44 30.1,29.5384615 C30.5,29.6369231 30.8,29.7353846 31.2,29.8338462 C32.7,30.0307692 34,30.3261538 35.6,30.3261538 Z" id="Combined-Shape" fill="#FFFFFF"></path>
                </g>
            </g>
        </g>
    </g>
</svg>