<?xml version="1.0" encoding="UTF-8"?>
<svg width="64px" height="63px" viewBox="0 0 64 63" version="1.1" xmlns="http://www.w3.org/2000/svg" xmlns:xlink="http://www.w3.org/1999/xlink">
    <!-- Generator: Sketch 55.2 (78181) - https://sketchapp.com -->
    <title>Dash</title>
    <desc>Created with Sketch.</desc>
    <g id="Page-1" stroke="none" stroke-width="1" fill="none" fill-rule="evenodd">
        <g id="crypto" transform="translate(-512.000000, -88.000000)">
            <g id="Dash" transform="translate(512.000000, 87.000000)">
                <g id="dash-d-blue-circle" transform="translate(0.000000, 0.984615)">
                    <ellipse id="Oval" fill="#008DE4" fill-rule="nonzero" cx="32" cy="31.5076923" rx="31.9660657" ry="31.4742801"></ellipse>
                    <g id="Group" transform="translate(9.908802, 13.832645)" fill="#FFFFFF" fill-rule="nonzero">
                        <path d="M28.9323436,0.0467770618 C43.0489926,0.0467770618 45.5465536,7.6313435 43.5444327,18.2898311 C42.2006363,25.4467216 38.8411453,30.9330027 33.1944857,33.4990587 C30.6494168,34.6551203 28.2468717,35.3033167 22.5934252,35.3033167 L6.56967126,35.3033167 L7.90668081,27.9726829 L21.9961824,27.9793654 C30.4661718,27.9927302 32.726193,24.3708492 33.8256628,21.2033738 C34.2396607,20.0139 35.1898197,16.3452419 35.223754,14.1734497 C35.2848356,9.94346684 33.1741251,7.39077576 26.0343584,7.39077576 L11.5376458,7.37072844 L12.8678685,0.0467770618 L28.9323436,0.0467770618 Z M5.93849417,13.9997063 L22.3830329,13.9997063 C22.3830329,13.9997063 22.2133616,14.8617408 21.6907741,17.0001207 C21.2971368,18.6306355 20.6931071,21.3303402 16.4852598,21.3303402 L0.0407211029,21.3303402 C0.0407211029,21.3303402 0.210392365,20.4683057 0.732979852,18.3299258 C1.12661718,16.699411 1.73064687,13.9997063 5.93849417,13.9997063 Z" id="Combined-Shape"></path>
                    </g>
                </g>
            </g>
        </g>
    </g>
</svg>