<?xml version="1.0" encoding="UTF-8"?>
<svg width="40px" height="64px" viewBox="0 0 40 64" version="1.1" xmlns="http://www.w3.org/2000/svg" xmlns:xlink="http://www.w3.org/1999/xlink">
    <!-- Generator: Sketch 55.2 (78181) - https://sketchapp.com -->
    <title>Etherium</title>
    <desc>Created with Sketch.</desc>
    <g id="Page-1" stroke="none" stroke-width="1" fill="none" fill-rule="evenodd">
        <g id="crypto" transform="translate(-239.000000, -87.000000)">
            <g id="Etherium" transform="translate(239.000000, 87.000000)">
                <g id="Group">
                    <path d="M20.1,0.787692308 C20.1,0.787692308 20.1,0.787692308 20.1,0.787692308 C20.1,0.984615385 20.1,1.18153846 20.1,1.37846154 C20.1,8.66461538 20.1,16.0492308 20.1,23.3353846 C20.1,23.4338462 20.1,23.6307692 20.1,23.7292308 C20.1,23.8276923 20,23.9261538 19.9,23.9261538 C19.2,24.2215385 18.6,24.5169231 17.9,24.8123077 C17,25.2061538 16,25.6 15.1,26.0923077 C14,26.5846154 12.9,27.0769231 11.8,27.5692308 C10.9,27.9630769 10,28.3569231 9.1,28.7507692 C8,29.2430769 6.9,29.7353846 5.8,30.2276923 C4.9,30.6215385 4,31.0153846 3,31.5076923 C2.3,31.8030769 1.5,32.1969231 0.8,32.4923077 C0.7,32.4923077 0.7,32.5907692 0.6,32.4923077 C0.6,32.4923077 0.6,32.4923077 0.5,32.4923077 C0.8,32 1.1,31.6061538 1.4,31.1138462 C3,28.4553846 4.7,25.7969231 6.3,23.1384615 C8,20.2830769 9.8,17.4276923 11.5,14.5723077 C13.1,11.9138462 14.7,9.25538462 16.3,6.69538462 C17.5,4.72615385 18.7,2.85538462 19.8,0.886153846 C20,0.886153846 20,0.787692308 20.1,0.787692308 C20,0.787692308 20.1,0.787692308 20.1,0.787692308 C20.1,0.787692308 20.1,0.787692308 20.1,0.787692308 Z" id="Shape" fill="#8A92B2" fill-rule="nonzero"></path>
                    <path d="M39.5,32.4923077 L39.5,32.4923077 L39.5,32.4923077 C39.5,32.4923077 39.5,32.4923077 39.5,32.4923077 C38,33.4769231 36.4,34.3630769 34.9,35.2492308 C30,38.1046154 25.2,40.8615385 20.3,43.7169231 C20.2,43.7169231 20.2,43.8153846 20.1,43.8153846 C20,43.8153846 20,43.7169231 20,43.7169231 C20,43.6184615 20,43.52 20,43.4215385 C20,37.0215385 20,30.6215385 20,24.2215385 C20,24.1230769 20,24.0246154 20,23.9261538 C20,23.8276923 20.1,23.8276923 20.2,23.8276923 C20.6,24.0246154 21,24.2215385 21.5,24.4184615 C22.7,25.0092308 24,25.5015385 25.2,26.0923077 C26.3,26.5846154 27.3,27.0769231 28.4,27.4707692 C29.5,27.9630769 30.5,28.4553846 31.6,28.9476923 C32.5,29.3415385 33.5,29.7353846 34.4,30.2276923 C35.3,30.6215385 36.3,31.0153846 37.2,31.5076923 C37.9,31.8030769 38.6,32.1969231 39.4,32.4923077 C39.4,32.3938462 39.4,32.4923077 39.5,32.4923077 Z" id="Shape" fill="#454A75" fill-rule="nonzero"></path>
                    <path d="M20.1,63.1138462 C20.1,63.1138462 20.1,63.1138462 20.1,63.1138462 C20.1,63.1138462 20,63.1138462 20.1,63.1138462 C20,63.1138462 20,63.1138462 19.9,63.0153846 C17.9,60.2584615 16,57.6 14,54.8430769 C12,52.0861538 10,49.3292308 8,46.5723077 C6.1,43.9138462 4.1,41.2553846 2.2,38.4984615 C1.7,37.8092308 1.2,37.12 0.7,36.4307692 C0.7,36.3323077 0.6,36.3323077 0.6,36.2338462 C0.7,36.2338462 0.7,36.3323077 0.8,36.3323077 C3.5,37.9076923 6.3,39.4830769 9,41.0584615 C12.1,42.9292308 15.3,44.7015385 18.4,46.5723077 C18.9,46.8676923 19.5,47.1630769 20,47.4584615 C20.1,47.4584615 20.1,47.5569231 20.1,47.6553846 C20.1,47.7538462 20.1,47.8523077 20.1,47.9507692 C20.1,52.8738462 20.1,57.6984615 20.1,62.6215385 C20.1,62.72 20.1,62.9169231 20.1,63.1138462 Z" id="Shape" fill="#8A92B2" fill-rule="nonzero"></path>
                    <path d="M0.6,32.4923077 C0.6,32.4923077 0.7,32.4923077 0.6,32.4923077 C0.7,32.4923077 0.7,32.4923077 0.6,32.4923077 C0.6,32.5907692 0.6,32.5907692 0.6,32.4923077 C0.6,32.4923077 0.6,32.4923077 0.6,32.4923077 C0.6,32.4923077 0.6,32.4923077 0.6,32.4923077 Z" id="Shape" fill="#808080" fill-rule="nonzero"></path>
                    <path d="M0.7,32.5907692 C0.7,32.4923077 0.7,32.4923077 0.7,32.5907692 C1.7,32.0984615 2.7,31.7046154 3.7,31.2123077 C5,30.6215385 6.3,30.0307692 7.6,29.44 C8.6,28.9476923 9.6,28.5538462 10.6,28.0615385 C12,27.3723077 13.5,26.7815385 14.9,26.0923077 C15.9,25.6984615 16.9,25.2061538 17.9,24.8123077 C18.6,24.5169231 19.3,24.2215385 20,23.8276923 C20.1,23.8276923 20.1,23.7292308 20.2,23.7292308 C20.2,23.7292308 20.2,23.7292308 20.2,23.8276923 C20.2,23.9261538 20.2,23.9261538 20.2,24.0246154 C20.2,30.5230769 20.2,37.0215385 20.2,43.52 C20.2,43.6184615 20.2,43.7169231 20.2,43.8153846 C20.1,43.9138462 20.1,43.8153846 20,43.8153846 C19.7,43.6184615 19.4,43.52 19.2,43.3230769 C13.1,39.7784615 7,36.2338462 0.9,32.6892308 C0.8,32.5907692 0.7,32.5907692 0.7,32.5907692 Z" id="Shape" fill="#62688F" fill-rule="nonzero"></path>
                    <path d="M39.4,36.2338462 C39.4,36.2338462 39.4,36.2338462 39.4,36.2338462 C39.4,36.3323077 39.4,36.3323077 39.3,36.4307692 C33.5,44.5046154 27.7,52.48 21.9,60.5538462 C21.3,61.44 20.7,62.2276923 20.1,63.1138462 C20.1,63.1138462 20.1,63.1138462 20.1,63.0153846 C20.1,62.9169231 20.1,62.9169231 20.1,62.8184615 C20.1,57.7969231 20.1,52.7753846 20.1,47.7538462 C20.1,47.6553846 20.1,47.5569231 20.1,47.4584615 C21.4,46.6707692 22.7,45.8830769 24,45.1938462 C29.1,42.24 34.2,39.2861538 39.3,36.3323077 C39.3,36.2338462 39.4,36.2338462 39.4,36.2338462 Z" id="Shape" fill="#62688F" fill-rule="nonzero"></path>
                    <path d="M20.1,23.8276923 C20.1,23.8276923 20.1,23.8276923 20.1,23.8276923 C20.1,23.7292308 20.1,23.6307692 20.1,23.6307692 C20.1,16.1476923 20.1,8.56615385 20.1,1.08307692 C20.1,0.984615385 20.1,0.886153846 20.1,0.886153846 C26.5,11.3230769 32.9,21.76 39.3,32.1969231 C39.4,32.2953846 39.5,32.3938462 39.5,32.4923077 C39.1,32.2953846 38.7,32.0984615 38.2,31.9015385 C37.7,31.7046154 37.2,31.4092308 36.7,31.2123077 C36.4,31.1138462 36.1,30.9169231 35.7,30.8184615 C35.2,30.6215385 34.6,30.3261538 34.1,30.1292308 C33.8,30.0307692 33.5,29.8338462 33.2,29.7353846 C32.5,29.44 31.8,29.1446154 31.1,28.8492308 C30.7,28.6523077 30.4,28.5538462 30,28.3569231 C29.5,28.16 29,27.8646154 28.5,27.6676923 C28.2,27.5692308 27.9,27.3723077 27.6,27.2738462 C26.9,26.9784615 26.2,26.6830769 25.5,26.3876923 C25.1,26.1907692 24.8,26.0923077 24.4,25.8953846 C23.9,25.6984615 23.4,25.4030769 22.9,25.2061538 C22.6,25.0092308 22.2,24.9107692 21.9,24.7138462 C21.3,24.4184615 20.7,24.1230769 20.1,23.8276923 C20.1,23.8276923 20.1,23.8276923 20.1,23.8276923 Z" id="Shape" fill="#62688F" fill-rule="nonzero"></path>
                </g>
            </g>
        </g>
    </g>
</svg>