<?xml version="1.0" encoding="UTF-8"?>
<svg width="64px" height="64px" viewBox="0 0 64 64" version="1.1" xmlns="http://www.w3.org/2000/svg" xmlns:xlink="http://www.w3.org/1999/xlink">
    <!-- Generator: Sketch 55.2 (78181) - https://sketchapp.com -->
    <title>RISE</title>
    <desc>Created with Sketch.</desc>
    <g id="Page-1" stroke="none" stroke-width="1" fill="none" fill-rule="evenodd">
        <g id="crypto" transform="translate(-805.000000, -567.000000)">
            <g id="RISE" transform="translate(805.000000, 567.000000)">
                <g>
                    <circle id="Coin" stroke="#EFEFEF" cx="32" cy="32" r="31.5"></circle>
                    <g id="ICON" transform="translate(22.000000, 13.000000)">
                        <path d="M3.23348018,0.0622246696 C4.92511013,0.0622246696 6.2784141,1.41552863 6.2784141,3.10715859 C6.2784141,4.79878855 4.92511013,6.15209251 3.23348018,6.15209251 C1.54185022,6.15209251 0.188546256,4.79878855 0.188546256,3.10715859 C0.188546256,1.41552863 1.57004405,0.0622246696 3.23348018,0.0622246696 Z" id="Path" fill="#8652A5"></path>
                        <path d="M1.25991189,11.5371145 L15.3286344,0.82345815 C16.5409692,-0.106938326 18.260793,0.146806167 19.1911894,1.35914097 C20.1215859,2.57147577 19.8678414,4.29129956 18.6555066,5.22169604 L4.58678414,15.9353524 C4.07929515,16.3018722 3.48722467,16.4992291 2.92334802,16.4992291 C2.07753304,16.4992291 1.25991189,16.1327093 0.724229075,15.3996696 C-0.206167401,14.2155286 0.0475770925,12.467511 1.25991189,11.5371145 L1.25991189,11.5371145 Z" id="Path" fill="#E73D54"></path>
                        <path d="M1.25991189,22.5045154 L15.3286344,11.790859 C16.5409692,10.8604626 18.260793,11.114207 19.1911894,12.3265419 C20.1215859,13.5388767 19.8678414,15.2587004 18.6555066,16.1890969 L4.58678414,26.9027533 C4.07929515,27.2692731 3.48722467,27.46663 2.92334802,27.46663 C2.07753304,27.46663 1.25991189,27.1001101 0.724229075,26.3670705 C-0.206167401,25.1547357 0.0475770925,23.4349119 1.25991189,22.5045154 L1.25991189,22.5045154 Z" id="Path" fill="#F49553"></path>
                        <path d="M4.58678414,38.067511 C4.07929515,38.4340308 3.48722467,38.6313877 2.92334802,38.6313877 C2.07753304,38.6313877 1.25991189,38.2648678 0.724229075,37.5318282 C-0.206167401,36.3194934 0.0475770925,34.5996696 1.25991189,33.6692731 L15.3286344,22.9556167 C16.5409692,22.0252203 18.260793,22.2789648 19.1911894,23.4912996 C20.1215859,24.7036344 19.8678414,26.4234581 18.6555066,27.3538546 L4.58678414,38.067511 L4.58678414,38.067511 Z" id="Path" fill="#3CBB90"></path>
                        <path d="M16.738326,38.6031938 C15.046696,38.6031938 13.6933921,37.2498899 13.6933921,35.5582599 C13.6933921,33.86663 15.046696,32.513326 16.738326,32.513326 C18.4299559,32.513326 19.7832599,33.86663 19.7832599,35.5582599 C19.7832599,37.2498899 18.4017621,38.6031938 16.738326,38.6031938 Z" id="Path" fill="#419DD6"></path>
                    </g>
                </g>
            </g>
        </g>
    </g>
</svg>